<?xml version="1.0" encoding="UTF-8" standalone="no"?>
<!-- Generator: Adobe Illustrator 19.0.0, SVG Export Plug-In . SVG Version: 6.00 Build 0)  -->

<svg
   xmlns:dc="http://purl.org/dc/elements/1.1/"
   xmlns:cc="http://creativecommons.org/ns#"
   xmlns:rdf="http://www.w3.org/1999/02/22-rdf-syntax-ns#"
   xmlns:svg="http://www.w3.org/2000/svg"
   xmlns="http://www.w3.org/2000/svg"
   xmlns:sodipodi="http://sodipodi.sourceforge.net/DTD/sodipodi-0.dtd"
   xmlns:inkscape="http://www.inkscape.org/namespaces/inkscape"
   version="1.1"
   id="Layer_1"
   x="0px"
   y="0px"
   viewBox="0 0 512 512"
   style="enable-background:new 0 0 512 512;"
   xml:space="preserve"
   sodipodi:docname="dmtop.svg"
   inkscape:version="0.92.2 (5c3e80d, 2017-08-06)"><metadata
     id="metadata73"><rdf:RDF><cc:Work
         rdf:about=""><dc:format>image/svg+xml</dc:format><dc:type
           rdf:resource="http://purl.org/dc/dcmitype/StillImage" /><dc:title></dc:title></cc:Work></rdf:RDF></metadata><defs
     id="defs71" /><sodipodi:namedview
     pagecolor="#ffffff"
     bordercolor="#666666"
     borderopacity="1"
     objecttolerance="10"
     gridtolerance="10"
     guidetolerance="10"
     inkscape:pageopacity="0"
     inkscape:pageshadow="2"
     inkscape:window-width="1853"
     inkscape:window-height="1025"
     id="namedview69"
     showgrid="false"
     inkscape:zoom="0.921875"
     inkscape:cx="79.504868"
     inkscape:cy="264.66978"
     inkscape:window-x="67"
     inkscape:window-y="27"
     inkscape:window-maximized="1"
     inkscape:current-layer="layer4" /><g
     id="g38" /><g
     id="g40" /><g
     id="g42" /><g
     id="g44" /><g
     id="g46" /><g
     id="g48" /><g
     id="g50" /><g
     id="g52" /><g
     id="g54" /><g
     id="g56" /><g
     id="g58" /><g
     id="g60" /><g
     id="g62" /><g
     id="g64" /><g
     id="g66" /><g
     inkscape:groupmode="layer"
     id="layer3"
     inkscape:label="Layer 1"><rect
       style="fill:#000000;stroke-width:0.99191743"
       id="rect3764"
       width="500"
       height="400"
       x="0"
       y="112" /></g><g
     inkscape:groupmode="layer"
     id="layer4"
     inkscape:label="Layer 2"><g
       id="g6"
       style="fill:#ffffff"
       transform="matrix(0.95156067,0,0,0.99921875,6,55.569174)"><g
         id="g4"
         style="fill:#ffffff"><path
           inkscape:connector-curvature="0"
           d="M 495.304,61.217 H 16.696 C 7.475,61.217 0,68.693 0,77.913 v 356.174 c 0,9.22 7.475,16.696 16.696,16.696 h 478.609 c 9.22,0 16.696,-7.475 16.696,-16.696 V 77.913 C 512,68.693 504.525,61.217 495.304,61.217 Z M 478.609,417.391 H 33.391 V 194.424 h 445.217 v 222.967 z m 0,-256.358 H 33.391 V 94.609 h 445.217 v 66.424 z"
           id="path2"
           style="fill:#ffffff" /></g></g><g
       id="g12"
       style="fill:#ffffff"
       transform="matrix(0.95156067,0,0,0.99921875,6,55.569174)"><g
         id="g10"
         style="fill:#ffffff"><path
           inkscape:connector-curvature="0"
           d="m 443.568,103.247 c -12.275,0 -22.261,9.986 -22.261,22.261 0,12.275 9.985,22.261 22.261,22.261 12.275,0 22.261,-9.986 22.261,-22.261 0,-12.275 -9.986,-22.261 -22.261,-22.261 z"
           id="path8"
           style="fill:#ffffff" /></g></g><g
       id="g18"
       style="fill:#ffffff"
       transform="matrix(0.95156067,0,0,0.99921875,6,55.569174)"><g
         id="g16"
         style="fill:#ffffff"><path
           inkscape:connector-curvature="0"
           d="m 382.926,103.247 c -12.275,0 -22.261,9.986 -22.261,22.261 0,12.275 9.986,22.261 22.261,22.261 12.275,0 22.261,-9.986 22.261,-22.261 0,-12.275 -9.986,-22.261 -22.261,-22.261 z"
           id="path14"
           style="fill:#ffffff" /></g></g><g
       id="g24"
       style="fill:#ffffff"
       transform="matrix(0.95156067,0,0,0.99921875,6,55.569174)"><g
         id="g22"
         style="fill:#ffffff"><path
           inkscape:connector-curvature="0"
           d="m 322.285,103.247 c -12.275,0 -22.261,9.986 -22.261,22.261 0,12.275 9.985,22.261 22.261,22.261 12.275,0 22.261,-9.986 22.261,-22.261 0,-12.275 -9.986,-22.261 -22.261,-22.261 z"
           id="path20"
           style="fill:#ffffff" /></g></g><g
       id="g30"
       style="fill:#ffffff"
       transform="matrix(0.95156067,0,0,0.99921875,6,55.569174)"><g
         id="g28"
         style="fill:#ffffff"><path
           inkscape:connector-curvature="0"
           d="m 235.45,293.193 -54.653,-46.504 c -7.022,-5.976 -17.559,-5.128 -23.535,1.896 -5.976,7.022 -5.127,17.559 1.896,23.535 l 39.709,33.789 -39.709,33.789 c -7.023,5.976 -7.871,16.512 -1.896,23.535 5.975,7.022 16.512,7.871 23.535,1.896 l 54.653,-46.504 c 7.83,-6.663 7.83,-18.771 0,-25.432 z"
           id="path26"
           style="fill:#ffffff" /></g></g><g
       id="g36"
       style="fill:#ffffff"
       transform="matrix(0.95156067,0,0,0.99921875,6,55.569174)"><g
         id="g34"
         style="fill:#ffffff"><path
           inkscape:connector-curvature="0"
           d="m 342.022,335.716 h -65.954 c -9.22,0 -16.696,7.475 -16.696,16.696 0,9.221 7.475,16.696 16.696,16.696 h 65.954 c 9.22,0 16.696,-7.475 16.696,-16.696 0,-9.221 -7.476,-16.696 -16.696,-16.696 z"
           id="path32"
           style="fill:#ffffff" /></g></g></g></svg>